<svg width="90" height="20" viewBox="0 0 90 20" fill="none" xmlns="http://www.w3.org/2000/svg">
<path d="M5.632 1.336C7.088 1.336 8.32 1.584 9.328 2.08C10.336 2.56 11.104 3.248 11.632 4.144C12.16 5.024 12.424 6.072 12.424 7.288C12.424 8.008 12.312 8.736 12.088 9.472C11.88 10.192 11.536 10.848 11.056 11.44C10.592 12.032 9.96 12.512 9.16 12.88C8.376 13.232 7.408 13.408 6.256 13.408H3.76V19H0.28V1.336H5.632ZM6.232 10.024C6.76 10.024 7.2 9.936 7.552 9.76C7.904 9.568 8.176 9.336 8.368 9.064C8.576 8.776 8.72 8.48 8.8 8.176C8.896 7.872 8.944 7.608 8.944 7.384C8.944 7.208 8.912 6.976 8.848 6.688C8.8 6.384 8.688 6.08 8.512 5.776C8.336 5.472 8.064 5.216 7.696 5.008C7.344 4.8 6.864 4.696 6.256 4.696H3.76V10.024H6.232ZM18.0098 8.512L18.3218 11.392L18.2498 10.96C18.5538 10.336 18.9698 9.808 19.4978 9.376C20.0258 8.928 20.5458 8.584 21.0578 8.344C21.5858 8.104 21.9858 7.984 22.2578 7.984L22.0898 11.344C21.3058 11.248 20.6338 11.376 20.0738 11.728C19.5138 12.08 19.0818 12.544 18.7778 13.12C18.4738 13.696 18.3218 14.288 18.3218 14.896V19H14.9858V8.512H18.0098ZM23.5448 13.624C23.5448 12.552 23.7928 11.592 24.2888 10.744C24.8008 9.896 25.5128 9.232 26.4248 8.752C27.3368 8.256 28.3848 8.008 29.5688 8.008C30.7688 8.008 31.8088 8.256 32.6888 8.752C33.5688 9.232 34.2408 9.896 34.7048 10.744C35.1848 11.592 35.4248 12.552 35.4248 13.624C35.4248 14.696 35.1848 15.664 34.7048 16.528C34.2408 17.376 33.5688 18.048 32.6888 18.544C31.8088 19.04 30.7528 19.288 29.5208 19.288C28.3688 19.288 27.3368 19.064 26.4248 18.616C25.5288 18.168 24.8248 17.52 24.3128 16.672C23.8008 15.824 23.5448 14.808 23.5448 13.624ZM26.9288 13.648C26.9288 14.192 27.0408 14.688 27.2648 15.136C27.4888 15.568 27.7928 15.912 28.1768 16.168C28.5608 16.424 28.9928 16.552 29.4728 16.552C30.0008 16.552 30.4568 16.424 30.8408 16.168C31.2248 15.912 31.5208 15.568 31.7288 15.136C31.9368 14.688 32.0408 14.192 32.0408 13.648C32.0408 13.088 31.9368 12.592 31.7288 12.16C31.5208 11.728 31.2248 11.384 30.8408 11.128C30.4568 10.872 30.0008 10.744 29.4728 10.744C28.9928 10.744 28.5608 10.872 28.1768 11.128C27.7928 11.384 27.4888 11.728 27.2648 12.16C27.0408 12.592 26.9288 13.088 26.9288 13.648ZM44.9598 19.288C44.0798 19.288 43.3358 19.144 42.7278 18.856C42.1358 18.552 41.6158 18.16 41.1678 17.68L41.4318 16.96V19H38.0718V0.0639992H41.4078V10.312V9.232C41.8238 8.88 42.3758 8.584 43.0638 8.344C43.7518 8.104 44.5358 7.984 45.4158 7.984C46.3278 7.984 47.1598 8.2 47.9118 8.632C48.6638 9.064 49.2638 9.696 49.7118 10.528C50.1758 11.344 50.4078 12.344 50.4078 13.528C50.4078 14.712 50.1518 15.736 49.6398 16.6C49.1438 17.464 48.4798 18.128 47.6478 18.592C46.8158 19.056 45.9198 19.288 44.9598 19.288ZM44.2158 16.456C44.7118 16.456 45.1678 16.328 45.5838 16.072C46.0158 15.816 46.3598 15.464 46.6158 15.016C46.8718 14.568 46.9998 14.064 46.9998 13.504C46.9998 12.944 46.8718 12.448 46.6158 12.016C46.3598 11.584 46.0158 11.248 45.5838 11.008C45.1678 10.752 44.7118 10.624 44.2158 10.624C43.7838 10.624 43.3758 10.696 42.9918 10.84C42.6238 10.968 42.3038 11.16 42.0318 11.416C41.7758 11.656 41.5758 11.952 41.4318 12.304V14.872C41.6238 15.224 41.8478 15.52 42.1038 15.76C42.3758 15.984 42.6878 16.16 43.0398 16.288C43.3918 16.4 43.7838 16.456 44.2158 16.456Z" fill="white"/>
<path d="M56.2643 1.336L61.4243 14.056L59.4083 13.648L64.0883 1.336H68.2163L60.1523 19.816L52.0883 1.336H56.2643ZM72.8802 19.288C71.6002 19.288 70.5122 19.048 69.6162 18.568C68.7362 18.088 68.0642 17.424 67.6002 16.576C67.1362 15.728 66.9042 14.752 66.9042 13.648C66.9042 12.592 67.1762 11.64 67.7202 10.792C68.2642 9.944 68.9922 9.272 69.9042 8.776C70.8162 8.264 71.8322 8.008 72.9522 8.008C74.4562 8.008 75.6882 8.448 76.6482 9.328C77.6242 10.192 78.2562 11.448 78.5442 13.096L70.3842 15.688L69.6402 13.864L75.5442 11.872L74.8482 12.184C74.7202 11.768 74.4882 11.408 74.1522 11.104C73.8322 10.784 73.3442 10.624 72.6882 10.624C72.1922 10.624 71.7522 10.744 71.3682 10.984C71.0002 11.208 70.7122 11.536 70.5042 11.968C70.3122 12.384 70.2162 12.88 70.2162 13.456C70.2162 14.112 70.3362 14.664 70.5762 15.112C70.8162 15.544 71.1442 15.872 71.5602 16.096C71.9762 16.32 72.4402 16.432 72.9522 16.432C73.3202 16.432 73.6722 16.368 74.0082 16.24C74.3602 16.112 74.7042 15.944 75.0402 15.736L76.5282 18.232C75.9682 18.552 75.3602 18.808 74.7042 19C74.0642 19.192 73.4562 19.288 72.8802 19.288ZM80.9858 0.0639992H84.3458V19H80.9858V0.0639992ZM86.4381 17.272C86.4381 16.776 86.6141 16.36 86.9661 16.024C87.3341 15.688 87.7341 15.52 88.1661 15.52C88.5661 15.52 88.9421 15.688 89.2941 16.024C89.6621 16.36 89.8461 16.776 89.8461 17.272C89.8461 17.8 89.6621 18.224 89.2941 18.544C88.9421 18.848 88.5661 19 88.1661 19C87.7341 19 87.3341 18.848 86.9661 18.544C86.6141 18.224 86.4381 17.8 86.4381 17.272Z" fill="#D9DB64"/>
</svg>
